<svg width="64" height="72" viewBox="0 0 64 72" fill="none" xmlns="http://www.w3.org/2000/svg">
<path d="M17 6L9.5 8M9.5 8L10.5 11.5L11.5 16.5L12.5 24.5V30.5V38.5V41L9 48V64H1V43V35V30.5V27.5L4 17.5C5 14.5 5 13 9.5 8Z" stroke="black"/>
<path d="M9 71.5H24L31.5 63.5L39.5 71.5H55" stroke="black"/>
<path d="M32 28.5L31.5 64" stroke="black"/>
<path d="M47 6L55 8M55 8L54 11.5L53 16.5L52 24.5V30.5V38.5V41L55.5 48L55 56V64H63.5V43V35V30.5V27.5L60.5 17.5C59.5 14.5 59.5 13 55 8Z" stroke="black"/>
<path d="M18 13H17" stroke="black"/>
<path d="M23 10L32 28.5" stroke="black"/>
<path d="M17 13C23.0671 17.0431 32 29 32 29" stroke="black"/>
<path d="M41.5 19H47V24H36.5" stroke="black"/>
<path d="M9 59V72M55 72V59" stroke="black"/>
<path d="M42 10L32 28.5" stroke="black"/>
<path d="M48 13C42.5666 16.6008 32 29 32 29" stroke="black"/>
<path d="M41 1H24V4M41 1V4M41 1L47 4V12.5L41 10V7M41 4H24M41 4V7M24 4V7H41" stroke="black"/>
<path d="M23 1V4V7V10L17 12.5V4L23.5 1H24" stroke="black"/>
<path d="M24 51.5H17V62.5H24" stroke="black"/>
<path d="M53 51H46V62H53" stroke="black"/>
<path d="M53 50.5V62.5" stroke="black"/>
<path d="M36 49C36 49.5523 35.5523 50 35 50C34.4477 50 34 49.5523 34 49C34 48.4477 34.4477 48 35 48C35.5523 48 36 48.4477 36 49Z" fill="white" stroke="black"/>
<circle cx="35" cy="59" r="1" fill="white" stroke="black"/>
<path d="M24 51V63" stroke="black"/>
</svg>
