<svg width="64" height="73" viewBox="0 0 64 73" fill="none" xmlns="http://www.w3.org/2000/svg">
<path d="M17 6L9.5 8M9.5 8L10.5 11.5L11.5 16.5L12.5 24.5V30.5V38.5V41L9 48V64H1V43V35V30.5V27.5L4 17.5C5 14.5 5 13 9.5 8Z" stroke="black"/>
<path d="M47 6L55 8M55 8L54 11.5L53 16.5L52 24.5V30.5V38.5V41L55.5 48L55 56V64H63.5V43V35V30.5V27.5L60.5 17.5C59.5 14.5 59.5 13 55 8Z" stroke="black"/>
<path d="M9 72H24L31.5 64L39.5 72H55" stroke="black"/>
<path d="M18 13H17" stroke="black"/>
<path d="M23 10L32 28.5" stroke="black"/>
<path d="M17 13C23.0671 17.0431 32 29 32 29" stroke="black"/>
<path d="M41.5 19H47V22H38.5" stroke="black"/>
<path d="M9 59V72M55 72V59" stroke="black"/>
<path d="M42 10L32 28.5" stroke="black"/>
<path d="M48 13C42.5666 16.6008 32 29 32 29" stroke="black"/>
<path d="M41 1H24V4M41 1V4M41 1L47 4V12.5L41 10V7M41 4H24M41 4V7M24 4V7H41" stroke="black"/>
<path d="M23 1V4V7V10L17 12.5V4L23.5 1H24" stroke="black"/>
<path d="M53 44H42V47H53" stroke="black"/>
<path d="M11 44H22V47H9.5" stroke="black"/>
<path d="M53 43V47.5" stroke="black"/>
<path d="M32 29L31.5 64.5" stroke="black"/>
</svg>
