<?xml version="1.0" encoding="utf-8"?>
<!-- Designed by Vexels.com - 2016 All Rights Reserved - https://vexels.com/terms-and-conditions/  -->

<svg version="1.1" id="Layer_1" xmlns="http://www.w3.org/2000/svg" xmlns:xlink="http://www.w3.org/1999/xlink" x="0px" y="0px"
	 width="1200px" height="1200px" viewBox="0 0 1200 1200" enable-background="new 0 0 1200 1200" xml:space="preserve">
<path fill="#575756" d="M599.889,50.069C296.296,50.069,50,296.37,50,600.021c0,303.735,246.296,549.91,549.889,549.91
	c303.815,0,550.111-246.174,550.111-549.91C1150,296.37,903.704,50.069,599.889,50.069z M203.528,600.021
	c0-66.271,16.57-128.64,45.264-183.524L850.79,906.88c-68.305,55.953-155.667,89.497-250.902,89.497
	C381.049,996.377,203.528,818.899,203.528,600.021z M954.432,776.594L355.335,288.599c67.383-53.073,152.257-84.933,244.554-84.933
	c218.936,0,396.457,177.436,396.457,396.356C996.345,663.581,981.013,723.357,954.432,776.594z"/>
</svg>
