<?xml version="1.0" standalone="no"?>
<!DOCTYPE svg PUBLIC "-//W3C//DTD SVG 20010904//EN"
 "http://www.w3.org/TR/2001/REC-SVG-20010904/DTD/svg10.dtd">
<svg version="1.0" xmlns="http://www.w3.org/2000/svg"
 width="87.000000pt" height="81.000000pt" viewBox="0 0 87.000000 81.000000"
 preserveAspectRatio="xMidYMid meet">
<metadata>
Created by potrace 1.10, written by Peter Selinger 2001-2011
</metadata>
<g transform="translate(0.000000,81.000000) scale(0.100000,-0.100000)"
fill="#000000" stroke="none">
<path d="M59 483 c-1 -137 0 -257 1 -268 1 -11 18 -40 38 -64 21 -24 46 -55
58 -69 23 -28 57 -32 379 -46 l140 -7 58 66 57 66 0 265 c0 203 -3 266 -12
269 -7 2 -101 6 -208 10 -107 3 -251 10 -320 15 -69 5 -140 10 -157 10 l-33 0
-1 -247z m451 196 c135 -6 249 -15 254 -20 5 -4 6 -22 2 -41 -5 -25 -17 -39
-52 -60 -53 -33 -73 -34 -357 -14 l-188 13 -44 43 c-33 33 -45 52 -45 74 l0
29 93 -6 c50 -3 202 -11 337 -18z m-385 -118 c30 -28 31 -29 230 -41 325 -21
305 -21 352 6 23 13 46 24 51 24 6 0 7 -76 5 -192 l-5 -192 -45 -52 c-25 -29
-51 -55 -57 -57 -6 -2 -103 2 -216 9 -113 7 -215 13 -227 13 -15 1 -41 24 -78
70 l-55 68 0 187 c0 102 3 186 7 186 4 0 21 -13 38 -29z"/>
</g>
</svg>
