<?xml version="1.0" standalone="no"?>
<!DOCTYPE svg PUBLIC "-//W3C//DTD SVG 20010904//EN"
 "http://www.w3.org/TR/2001/REC-SVG-20010904/DTD/svg10.dtd">
<svg version="1.0" xmlns="http://www.w3.org/2000/svg"
 width="88.000000pt" height="81.000000pt" viewBox="0 0 88.000000 81.000000"
 preserveAspectRatio="xMidYMid meet">
<metadata>
Created by potrace 1.10, written by Peter Selinger 2001-2011
</metadata>
<g transform="translate(0.000000,81.000000) scale(0.100000,-0.100000)"
fill="#000000" stroke="none">
<path d="M83 442 l-2 -262 37 -43 c20 -23 46 -55 58 -71 l21 -29 251 -5 252
-5 59 64 60 64 1 268 0 267 -152 0 c-84 0 -250 3 -368 7 l-215 6 -2 -261z
m487 220 l225 -7 1 -140 c0 -77 -1 -188 -4 -247 l-5 -106 -51 -56 -51 -55
-120 4 c-66 2 -172 4 -236 4 l-115 1 -52 65 -52 64 0 245 0 244 118 -5 c64 -3
218 -8 342 -11z"/>
</g>
</svg>
