<?xml version="1.0" standalone="no"?>
<!DOCTYPE svg PUBLIC "-//W3C//DTD SVG 20010904//EN"
 "http://www.w3.org/TR/2001/REC-SVG-20010904/DTD/svg10.dtd">
<svg version="1.0" xmlns="http://www.w3.org/2000/svg"
 width="85.000000pt" height="79.000000pt" viewBox="0 0 85.000000 79.000000"
 preserveAspectRatio="xMidYMid meet">
<metadata>
Created by potrace 1.10, written by Peter Selinger 2001-2011
</metadata>
<g transform="translate(0.000000,79.000000) scale(0.100000,-0.100000)"
fill="#000000" stroke="none">
<path d="M72 429 l3 -313 30 -8 c60 -14 142 -37 228 -63 l88 -26 137 36 c75
20 155 42 177 50 l40 13 3 293 c1 161 -1 296 -5 300 -5 4 -154 10 -333 14
-179 3 -335 9 -348 12 l-22 5 2 -313z m533 262 l150 -6 3 -34 c2 -18 0 -37 -5
-41 -4 -4 -154 -2 -333 4 -302 10 -325 12 -328 29 -2 10 -1 29 2 42 l6 23 177
-5 c98 -3 246 -8 328 -12z m-81 -107 c121 -3 223 -7 226 -9 3 -2 5 -73 3 -157
-2 -84 -3 -183 -3 -220 0 -50 -4 -68 -13 -68 -7 0 -78 -18 -157 -41 -80 -22
-156 -39 -170 -36 -14 2 -65 17 -115 31 -50 15 -115 33 -145 40 l-55 13 -3
219 c-1 120 0 225 3 233 4 11 25 12 108 7 56 -3 201 -9 321 -12z"/>
</g>
</svg>
