<?xml version="1.0" standalone="no"?>
<!DOCTYPE svg PUBLIC "-//W3C//DTD SVG 20010904//EN"
 "http://www.w3.org/TR/2001/REC-SVG-20010904/DTD/svg10.dtd">
<svg version="1.0" xmlns="http://www.w3.org/2000/svg"
 width="85.000000pt" height="81.000000pt" viewBox="0 0 85.000000 81.000000"
 preserveAspectRatio="xMidYMid meet">
<metadata>
Created by potrace 1.10, written by Peter Selinger 2001-2011
</metadata>
<g transform="translate(0.000000,81.000000) scale(0.100000,-0.100000)"
fill="#000000" stroke="none">
<path d="M58 692 c-3 -20 -6 -152 -7 -293 -2 -202 0 -258 11 -266 15 -11 286
-84 338 -90 19 -3 53 0 75 5 22 6 87 22 145 36 58 14 115 30 128 36 l22 10 0
290 c-1 214 -4 291 -13 297 -7 4 -166 9 -353 10 l-342 3 -4 -38z m670 3 c9 -3
12 -18 10 -42 -3 -32 -7 -38 -33 -44 -16 -4 -55 -14 -85 -23 -30 -8 -94 -25
-142 -37 l-87 -22 -68 21 c-37 12 -107 31 -155 44 l-88 23 0 45 0 45 317 -3
c175 -1 324 -4 331 -7z m-473 -156 l142 -40 94 25 c52 13 128 34 169 45 41 12
76 21 77 21 2 0 3 -100 3 -223 l0 -223 -107 -27 c-241 -62 -221 -59 -267 -43
-24 8 -95 28 -159 45 -65 16 -121 32 -125 35 -5 3 -7 58 -6 123 2 65 4 162 4
217 0 88 2 97 17 92 9 -4 80 -25 158 -47z"/>
<path d="M376 601 c-10 -16 5 -41 24 -41 25 0 35 18 20 35 -14 17 -36 20 -44
6z"/>
</g>
</svg>
