<?xml version="1.0" standalone="no"?>
<!DOCTYPE svg PUBLIC "-//W3C//DTD SVG 20010904//EN"
 "http://www.w3.org/TR/2001/REC-SVG-20010904/DTD/svg10.dtd">
<svg version="1.0" xmlns="http://www.w3.org/2000/svg"
 width="87.000000pt" height="81.000000pt" viewBox="0 0 87.000000 81.000000"
 preserveAspectRatio="xMidYMid meet">
<metadata>
Created by potrace 1.10, written by Peter Selinger 2001-2011
</metadata>
<g transform="translate(0.000000,81.000000) scale(0.100000,-0.100000)"
fill="#000000" stroke="none">
<path d="M75 709 c-3 -13 -4 -152 -3 -309 l3 -285 85 -22 c47 -12 128 -34 181
-48 l97 -26 78 22 c44 11 97 25 119 30 22 5 63 15 90 22 l50 13 8 90 c4 49 6
185 5 301 l-3 213 -135 4 c-74 3 -233 8 -352 12 l-217 7 -6 -24z m415 -17
l265 -7 3 -276 2 -276 -37 -10 c-21 -6 -94 -26 -163 -44 l-125 -32 -80 21
c-218 59 -256 70 -258 73 -1 2 -1 131 1 286 l3 282 62 -5 c34 -3 181 -9 327
-12z"/>
</g>
</svg>
