<?xml version="1.0" standalone="no"?>
<!DOCTYPE svg PUBLIC "-//W3C//DTD SVG 20010904//EN"
 "http://www.w3.org/TR/2001/REC-SVG-20010904/DTD/svg10.dtd">
<svg version="1.0" xmlns="http://www.w3.org/2000/svg"
 width="88.000000pt" height="82.000000pt" viewBox="0 0 88.000000 82.000000"
 preserveAspectRatio="xMidYMid meet">
<metadata>
Created by potrace 1.10, written by Peter Selinger 2001-2011
</metadata>
<g transform="translate(0.000000,82.000000) scale(0.100000,-0.100000)"
fill="#000000" stroke="none">
<path d="M80 733 c0 -10 -2 -140 -5 -289 -3 -155 -2 -281 3 -295 8 -20 26 -28
118 -53 60 -15 137 -36 172 -47 58 -17 67 -17 135 -3 39 9 81 19 92 24 11 4
59 18 108 30 l87 23 0 302 0 303 -237 6 c-131 3 -291 9 -355 12 -109 5 -118 4
-118 -13z m678 -28 c7 -3 12 -21 12 -43 l0 -39 -142 -38 c-198 -53 -206 -53
-340 -11 -62 19 -129 39 -148 44 -33 8 -35 11 -38 54 l-3 47 323 -6 c178 -2
329 -6 336 -8z m-616 -114 c13 -5 80 -28 150 -50 l126 -40 89 24 c48 12 122
32 163 44 41 11 81 21 88 21 9 0 12 -50 12 -219 0 -121 -4 -222 -8 -225 -5 -3
-51 -16 -103 -31 -52 -14 -121 -33 -155 -42 l-60 -16 -120 32 c-65 18 -143 39
-171 47 l-53 15 0 225 c0 135 4 224 10 224 5 0 19 -4 32 -9z"/>
</g>
</svg>
