<?xml version="1.0" standalone="no"?>
<!DOCTYPE svg PUBLIC "-//W3C//DTD SVG 20010904//EN"
 "http://www.w3.org/TR/2001/REC-SVG-20010904/DTD/svg10.dtd">
<svg version="1.0" xmlns="http://www.w3.org/2000/svg"
 width="89.000000pt" height="83.000000pt" viewBox="0 0 89.000000 83.000000"
 preserveAspectRatio="xMidYMid meet">
<metadata>
Created by potrace 1.10, written by Peter Selinger 2001-2011
</metadata>
<g transform="translate(0.000000,83.000000) scale(0.100000,-0.100000)"
fill="#000000" stroke="none">
<path d="M90 426 l0 -305 83 -25 c246 -74 295 -79 418 -42 29 9 86 25 126 37
40 11 77 26 83 34 7 8 9 104 8 291 l-3 279 -125 2 c-142 2 -483 21 -547 30
l-43 5 0 -306z m238 257 l104 -6 -6 -26 c-51 -231 -51 -401 0 -580 6 -21 5
-23 -12 -16 -10 4 -59 18 -109 31 -50 13 -112 32 -140 42 l-50 18 -1 269 c0
149 2 274 4 279 3 5 28 6 56 2 28 -3 98 -9 154 -13z m333 -13 l119 0 -2 -267
-3 -268 -80 -22 c-113 -31 -177 -50 -197 -58 -22 -9 -23 2 -4 52 43 116 46
338 7 497 l-19 78 30 -6 c17 -3 84 -6 149 -6z m-178 -97 c9 -49 19 -115 23
-149 8 -79 -12 -241 -43 -344 -4 -13 -5 -13 -13 0 -14 26 -40 201 -40 269 1
110 33 311 50 311 4 0 15 -39 23 -87z"/>
</g>
</svg>
