<?xml version="1.0" standalone="no"?>
<!DOCTYPE svg PUBLIC "-//W3C//DTD SVG 20010904//EN"
 "http://www.w3.org/TR/2001/REC-SVG-20010904/DTD/svg10.dtd">
<svg version="1.0" xmlns="http://www.w3.org/2000/svg"
 width="86.000000pt" height="80.000000pt" viewBox="0 0 86.000000 80.000000"
 preserveAspectRatio="xMidYMid meet">
<metadata>
Created by potrace 1.10, written by Peter Selinger 2001-2011
</metadata>
<g transform="translate(0.000000,80.000000) scale(0.100000,-0.100000)"
fill="#000000" stroke="none">
<path d="M70 419 c0 -173 4 -319 8 -325 25 -37 56 -44 192 -45 74 -1 207 -4
294 -7 140 -6 162 -5 187 10 16 10 31 28 33 40 8 39 17 551 10 584 l-6 31
-126 7 c-70 3 -232 9 -359 12 l-233 7 0 -314z m673 267 l28 -1 -3 -293 -3
-294 -25 -20 c-23 -19 -34 -20 -165 -14 -77 3 -209 9 -293 12 -137 6 -156 9
-173 27 -18 19 -19 39 -19 310 l0 290 313 -8 c171 -4 325 -9 340 -9z"/>
</g>
</svg>
