<?xml version="1.0" standalone="no"?>
<!DOCTYPE svg PUBLIC "-//W3C//DTD SVG 20010904//EN"
 "http://www.w3.org/TR/2001/REC-SVG-20010904/DTD/svg10.dtd">
<svg version="1.0" xmlns="http://www.w3.org/2000/svg"
 width="88.000000pt" height="74.000000pt" viewBox="0 0 88.000000 74.000000"
 preserveAspectRatio="xMidYMid meet">
<metadata>
Created by potrace 1.10, written by Peter Selinger 2001-2011
</metadata>
<g transform="translate(0.000000,74.000000) scale(0.100000,-0.100000)"
fill="#000000" stroke="none">
<path d="M77 713 c-3 -4 -8 -135 -12 -290 -8 -308 -5 -332 44 -357 39 -21 113
-27 385 -30 l250 -4 28 29 28 28 -2 303 -3 303 -315 6 c-173 4 -334 9 -356 13
-23 4 -44 4 -47 -1z m155 -33 l37 0 -2 -305 -2 -305 -46 0 c-58 0 -106 17
-119 40 -6 11 -10 136 -10 301 l0 282 53 -7 c28 -3 69 -6 89 -6z m247 -6 l62
-7 -5 -300 c-3 -165 -8 -302 -10 -305 -3 -2 -57 -1 -120 3 l-116 7 0 304 0
304 64 0 c34 0 91 -3 125 -6z m212 -4 l90 0 -3 -291 c-4 -344 6 -319 -130
-319 l-88 0 0 303 c0 167 3 307 7 311 4 3 13 4 21 1 7 -3 54 -5 103 -5z"/>
</g>
</svg>
