<?xml version="1.0" standalone="no"?>
<!DOCTYPE svg PUBLIC "-//W3C//DTD SVG 20010904//EN"
 "http://www.w3.org/TR/2001/REC-SVG-20010904/DTD/svg10.dtd">
<svg version="1.0" xmlns="http://www.w3.org/2000/svg"
 width="84.000000pt" height="80.000000pt" viewBox="0 0 84.000000 80.000000"
 preserveAspectRatio="xMidYMid meet">
<metadata>
Created by potrace 1.10, written by Peter Selinger 2001-2011
</metadata>
<g transform="translate(0.000000,80.000000) scale(0.100000,-0.100000)"
fill="#000000" stroke="none">
<path d="M47 724 c-4 -4 -7 -146 -7 -315 l0 -308 24 -28 24 -28 295 -8 c187
-5 304 -4 320 2 53 21 55 32 57 346 1 160 2 297 1 306 -1 14 -39 17 -342 23
-188 4 -347 10 -354 12 -6 3 -14 1 -18 -2z m486 -40 l208 -6 -3 -56 c-3 -51
-6 -58 -36 -75 -27 -16 -52 -19 -165 -18 -72 0 -196 4 -275 7 -130 6 -144 9
-167 30 -21 19 -25 32 -25 78 l0 55 128 -5 c70 -2 221 -7 335 -10z m-423 -159
c23 -12 84 -15 308 -17 267 -3 281 -2 302 17 l22 20 -4 -228 c-3 -215 -4 -230
-23 -244 -17 -13 -59 -14 -308 -9 -165 3 -297 10 -307 16 -39 21 -42 45 -39
256 2 112 8 204 12 204 4 0 21 -7 37 -15z"/>
<path d="M387 604 c-4 -4 -7 -16 -7 -26 0 -14 6 -19 23 -16 14 2 22 10 22 23
0 20 -25 32 -38 19z"/>
</g>
</svg>
