<?xml version="1.0" standalone="no"?>
<!DOCTYPE svg PUBLIC "-//W3C//DTD SVG 20010904//EN"
 "http://www.w3.org/TR/2001/REC-SVG-20010904/DTD/svg10.dtd">
<svg version="1.0" xmlns="http://www.w3.org/2000/svg"
 width="81.000000pt" height="74.000000pt" viewBox="0 0 81.000000 74.000000"
 preserveAspectRatio="xMidYMid meet">
<metadata>
Created by potrace 1.10, written by Peter Selinger 2001-2011
</metadata>
<g transform="translate(0.000000,74.000000) scale(0.100000,-0.100000)"
fill="#000000" stroke="none">
<path d="M40 394 l0 -311 24 -22 c27 -25 49 -28 443 -50 183 -10 219 -6 244
29 17 23 19 52 20 324 1 283 0 300 -18 306 -19 8 -410 29 -600 33 l-113 2 0
-311z m253 280 l46 -7 3 -80 3 -81 32 -9 c17 -5 43 -7 57 -3 25 6 26 8 26 92
l0 86 33 -5 c17 -3 83 -9 145 -13 l113 -7 -3 -293 c-3 -263 -5 -295 -20 -311
-17 -16 -33 -16 -320 1 -281 16 -305 19 -326 38 -22 21 -22 24 -22 310 l0 288
94 0 c51 0 114 -3 139 -6z m147 -29 c0 -20 -5 -25 -24 -25 -13 0 -31 -3 -40
-6 -13 -5 -16 1 -16 25 0 30 2 31 40 31 36 0 40 -2 40 -25z m-13 -61 c7 -20
-18 -38 -29 -21 -6 9 -8 8 -8 -2 0 -10 -3 -12 -10 -5 -15 15 -1 44 21 44 11 0
22 -7 26 -16z m13 -53 c0 -12 -45 -22 -64 -15 -29 11 -16 24 24 24 22 0 40 -4
40 -9z"/>
</g>
</svg>
