<svg width="32" height="41" viewBox="0 0 32 41" fill="none" xmlns="http://www.w3.org/2000/svg">
<path d="M0.48291 1.26797C0.48291 1.71318 1.15033 1.78167 5.45145 1.67893L10.3829 1.61044L13.5717 4.31594C16.4638 6.78171 16.7604 7.19268 16.7975 8.32282C16.7975 9.82969 16.5009 10.6516 15.9076 10.6516C15.2773 10.6516 9.38179 6.9187 9.12224 6.33651C9.011 6.06253 9.08516 5.2406 9.30763 4.52142C9.64134 3.22004 9.64134 3.18579 8.52898 2.98031C7.93572 2.87757 6.04471 2.77483 4.33909 2.77483C1.81774 2.77483 1.22448 2.87757 1.22448 3.28854C1.22448 3.6995 1.85482 3.80224 4.78403 3.80224H8.38066L8.15819 5.2406C8.04696 6.06253 7.11999 11.3365 6.08179 16.9873C3.07842 33.2545 2.74471 34.9669 2.29976 37.8094C1.8919 40.1724 2.00313 41.234 2.52224 40.7203C2.70763 40.5491 5.97055 23.0147 7.00875 16.816C7.2683 15.0352 7.67617 12.8777 7.86156 12.0215C8.08403 11.1653 8.34358 9.82969 8.45482 9.00776C8.71437 7.46665 9.011 7.26117 9.75257 8.0831C10.0121 8.35707 11.6807 9.45297 13.4975 10.5146C15.3144 11.5763 16.7975 12.5694 16.7975 12.7407C16.7975 12.9461 15.7964 15.1037 14.6099 17.6037C9.19639 28.8024 3.81999 40.1724 3.81999 40.4806C3.81999 41.4053 4.6728 40.5491 5.52561 38.8025C6.04471 37.7409 6.67505 36.371 6.97167 35.823C7.23123 35.2408 8.12111 33.4258 8.93684 31.7134C9.75257 30.0011 10.902 27.5353 11.4953 26.2339L12.6076 23.8366L17.2795 23.7339L21.9885 23.6312V21.4394V19.2133H18.429C15.7222 19.2133 14.9065 19.1106 15.0548 18.7681C15.1661 18.5626 15.8706 17.0558 16.6121 15.4804C17.6874 13.2544 17.9099 12.4324 17.6132 12.0215C17.2054 11.3708 17.5391 7.91186 18.0211 7.87761C18.6885 7.80912 23.4717 10.3776 23.4717 10.7886C23.4717 11.8845 22.3593 25.9942 22.1739 26.9189C22.0998 27.4668 21.8402 30.3435 21.6177 33.2545C21.3953 36.1655 21.1357 39.0765 21.0245 39.6587C20.8391 40.5491 20.9132 40.7888 21.3953 40.7888C21.729 40.7888 21.9885 40.6861 21.9885 40.5149C21.9885 40.3779 22.3964 35.2751 22.9155 29.1449C23.4346 23.0147 23.9537 16.3708 24.102 14.316C24.2132 12.2955 24.4357 10.6516 24.584 10.6516C24.9919 10.6516 25.3256 11.5763 25.3256 12.5352C25.3256 12.9804 25.993 16.4736 26.8458 20.3092C27.6616 24.1449 28.8852 30.2408 29.5526 33.871C30.22 37.5011 30.8874 40.5491 31.0357 40.6861C31.5919 41.1998 31.7031 40.3094 31.3323 38.3231C31.1099 37.1244 30.6649 34.6929 30.3312 32.9121C30.0346 31.1312 28.9964 26.0284 28.0694 21.6106C27.1425 17.1928 26.2155 12.7749 26.0301 11.816L25.6593 10.0694L21.729 8.39132C18.3548 6.95295 17.2425 6.26801 14.2762 3.6995L10.7908 0.72002H5.63684C1.22448 0.72002 0.48291 0.788513 0.48291 1.26797ZM21.1728 21.5764L21.284 22.9805H17.2054C14.9436 22.9805 13.0897 22.912 13.0897 22.8092C13.0897 22.7065 13.4234 22.0558 13.7941 21.3366L14.4986 20.0695L17.7616 20.138L21.0616 20.2065L21.1728 21.5764Z" fill="black"/>
</svg>
