<svg width="30" height="39" viewBox="0 0 30 39" fill="none" xmlns="http://www.w3.org/2000/svg">
<path d="M0.944012 0.359943C0.269855 0.978924 1.01143 1.10272 5.22491 1.10272H9.80918L12.6406 3.64054L15.5058 6.17836V7.78771C15.5058 8.68523 15.3373 9.52085 15.1687 9.6137C14.9665 9.7375 14.2586 9.39706 13.5508 8.90187C12.8766 8.40669 11.4272 7.47822 10.3822 6.85924L8.49457 5.68317L8.66311 4.01193L8.86536 2.34068H5.12379C3.06761 2.34068 1.3148 2.46448 1.21367 2.61922C1.11255 2.74302 2.56199 2.95966 4.44963 3.08346C6.33727 3.1763 7.92154 3.3001 7.95525 3.362C7.98896 3.39295 7.44963 6.42595 6.74176 10.0779C6.0339 13.7299 5.22491 18.0628 4.95525 19.6721C4.65188 21.2815 3.80918 25.8619 3.06761 29.8234C1.48334 38.1177 1.48334 38.1487 2.1912 37.6226C2.46087 37.4059 2.69682 36.9417 2.69682 36.5703C2.69682 36.1989 3.43839 32.0827 4.34851 27.4094C5.25862 22.7361 6.4721 16.1749 7.07884 12.8633C7.68558 9.5518 8.22491 6.79734 8.25862 6.73544C8.35974 6.61164 14.2249 10.1708 15.2361 10.9445C15.6069 11.223 15.7418 11.5635 15.5732 11.7492C15.4047 11.9349 14.4272 13.9775 13.3485 16.2677C12.2699 18.558 11.2586 20.6934 11.0901 20.972C10.2474 22.4575 3.37098 36.9726 3.37098 37.2821C3.37098 37.9011 4.04514 37.6535 4.34851 36.9107C4.51705 36.5393 5.05637 35.3942 5.56199 34.3729C7.07884 31.309 7.92154 29.6068 9.77547 25.7072C10.753 23.6646 11.5957 21.9314 11.6968 21.8695C11.7642 21.7767 12.5732 21.9624 13.517 22.2718C16.4833 23.2622 19.0788 22.5194 20.0564 20.384C20.326 19.765 20.6294 19.3317 20.7305 19.4245C20.8317 19.4864 20.7305 21.0958 20.5283 22.9527C20.326 24.8097 19.8878 28.833 19.5845 31.897C19.0788 36.725 19.1126 38.4582 19.6856 37.9011C19.8541 37.7464 20.326 33.2897 21.0676 25.243C21.3373 22.2718 21.7081 18.4651 21.9103 16.7939C22.0788 15.1226 22.2474 12.9252 22.2474 11.9039C22.2474 10.5422 22.3485 10.047 22.6856 10.1398C22.8878 10.2327 23.1238 10.6969 23.1912 11.1921C23.2586 11.6873 23.7642 14.3798 24.3036 17.1962C25.4496 22.8599 28.2811 37.963 28.3148 38.3034C28.3148 38.4582 28.5508 38.551 28.8541 38.551C29.2586 38.551 29.3597 38.3653 29.1912 37.8701C29.0901 37.4678 28.4496 34.2491 27.8092 30.659C26.5283 23.6646 24.4721 13.2966 23.8991 10.9445C23.4946 9.36611 23.5283 9.39706 17.2923 6.3331C16.5508 5.96172 14.6631 4.50711 13.1126 3.08346L10.3485 0.483742H6.94401C5.05637 0.483742 3.00019 0.390896 2.35974 0.298046C1.71929 0.2052 1.07884 0.236149 0.944012 0.359943ZM18.4721 7.88055C19.3822 8.37574 20.4609 8.87092 20.8991 8.99472C21.6406 9.21136 21.6743 9.27326 21.4721 12.3682C21.3373 14.0704 21.1687 15.9582 21.0339 16.5153L20.8317 17.5057H17.4946C14.2249 17.5057 13.4159 17.2581 14.0901 16.4844C14.2586 16.2677 14.8991 14.9988 15.5058 13.668C16.3822 11.7492 16.5508 11.0993 16.2474 10.666C16.0114 10.3255 15.9777 9.79939 16.18 9.18041C16.3148 8.68523 16.3822 7.9734 16.2811 7.60201C16.0451 6.76639 16.517 6.82829 18.4721 7.88055ZM19.8878 18.8984C18.7755 21.591 16.6182 22.4266 13.4833 21.4053C12.1687 20.972 12.135 20.8791 12.8092 19.2698L13.2811 18.1247H16.753H20.2249L19.8878 18.8984Z" fill="black"/>
</svg>
