<svg width="46" height="41" viewBox="0 0 46 41" fill="none" xmlns="http://www.w3.org/2000/svg">
<path d="M15.5 1V6" stroke="black"/>
<path d="M45 1H2V5.5H45V1Z" stroke="black"/>
<path d="M2 5.5C1.5 6.5 1 8.2 1 9C1 9.8 1 14.3333 1 16.5V31.5V40.5" stroke="black"/>
<path d="M44.5 5C45.5 6.5 45.5 7.7 45.5 8.5C45.5 9.3 45.5 13.8333 45.5 16V31V40" stroke="black"/>
<path d="M7 5.5C8 16.5 1 24.5 1 24.5" stroke="black"/>
<path d="M39.0977 6C38.0977 17 45.5 25.5 45.5 25.5" stroke="black"/>
<circle cx="18" cy="3" r="1" fill="black"/>
<path d="M27 5.5V16.5C27 17 27.8 22.4 23 22" stroke="black"/>
<path d="M23 5.5V36.5M23 36.5L20.5 38.5M23 36.5L25.5 38.5" stroke="black"/>
</svg>
