<svg width="50" height="41" viewBox="0 0 50 41" fill="none" xmlns="http://www.w3.org/2000/svg">
<path d="M46.5 1H3.5V5.5H46.5V1Z" stroke="black"/>
<path d="M3.5 5.5C3.13578 6.22844 2.45915 7.35894 2 8.5C1.82883 8.92539 1.5 10.7828 1.5 11M1.5 11C1.5 11.349 1.64722 9.83402 1.53992 10.6685M1.5 11L1.53992 10.6685M2.01636 40.5L2 31.5V24.5L2.01636 24.729L1 23V21.5V21V19V18V16.5001C1 15.2787 1.40128 11.7468 1.53992 10.6685" stroke="black"/>
<path d="M46.5 5C46.8642 5.72844 47.5409 6.85894 48 8C48.1712 8.42539 48.5 10.2828 48.5 10.5M48.5 10.5C48.5 10.849 48.3528 9.33402 48.4601 10.1685M48.5 10.5L48.4601 10.1685M47.9836 40L48 31V24L47.9836 24.229L49 22.5V21V20.5V18.5V17.5V16.0001C49 14.7787 48.5987 11.2468 48.4601 10.1685" stroke="black"/>
<path d="M8.5 5.5C9.5 16.5 2 25 2 25" stroke="black"/>
<path d="M40.5977 6C39.5977 17 48 24 48 24" stroke="black"/>
<circle cx="19.5" cy="3" r="1" fill="black"/>
<path d="M16.9998 1C16.1665 1.83333 14.9998 3.9 16.9998 5.5" stroke="black"/>
<path d="M28.5 5.5V16.5C28.5 17 29.3 22.4 24.5 22" stroke="black"/>
<path d="M24.5 5.5V36.5M24.5 36.5L22 38.5M24.5 36.5L27 38.5" stroke="black"/>
</svg>
