<svg width="49" height="41" viewBox="0 0 49 41" fill="none" xmlns="http://www.w3.org/2000/svg">
<path d="M46 1H3V5.5H46V1Z" stroke="black"/>
<path d="M3 5.5C2.63578 6.22844 1.95915 7.35894 1.5 8.5C1.32883 8.92539 1 10.7828 1 11M1 11C1 11.349 1.14722 9.83402 1.03992 10.6685M1 11L1.03992 10.6685M1.51636 40.5L1.5 31.5V24.5L1.51636 24.729L0.5 23V21.5V21V19V18V16.5001C0.5 15.2787 0.90128 11.7468 1.03992 10.6685" stroke="black"/>
<path d="M46 5C46.3642 5.72844 47.0409 6.85894 47.5 8C47.6712 8.42539 48 10.2828 48 10.5M48 10.5C48 10.849 47.8528 9.33402 47.9601 10.1685M48 10.5L47.9601 10.1685M47.4836 40L47.5 31V24L47.4836 24.229L48.5 22.5V21V20.5V18.5V17.5V16.0001C48.5 14.7787 48.0987 11.2468 47.9601 10.1685" stroke="black"/>
<path d="M8 5.5C9 16.5 1.5 25 1.5 25" stroke="black"/>
<path d="M40.0977 6C39.0977 17 47.5 24 47.5 24" stroke="black"/>
<circle cx="19" cy="3" r="1" fill="black"/>
<path d="M28 5.5V16.5C28 17 28.8 22.4 24 22" stroke="black"/>
<path d="M15.5 1V5.5" stroke="black"/>
<path d="M24 5.5V36.5M24 36.5L21.5 38.5M24 36.5L26.5 38.5" stroke="black"/>
</svg>
