<?xml version="1.0" standalone="no"?>
<!DOCTYPE svg PUBLIC "-//W3C//DTD SVG 20010904//EN"
 "http://www.w3.org/TR/2001/REC-SVG-20010904/DTD/svg10.dtd">
<svg version="1.0" xmlns="http://www.w3.org/2000/svg"
 width="87.000000pt" height="70.000000pt" viewBox="0 0 87.000000 70.000000"
 preserveAspectRatio="xMidYMid meet">
<metadata>
Created by potrace 1.10, written by Peter Selinger 2001-2011
</metadata>
<g transform="translate(0.000000,70.000000) scale(0.100000,-0.100000)"
fill="#000000" stroke="none">
<path d="M240 587 c-52 -17 -68 -28 -79 -52 -27 -56 -91 -230 -91 -247 0 -11
19 -27 49 -43 l50 -25 18 30 c9 17 20 30 24 30 3 0 9 -54 13 -120 4 -66 9
-126 12 -134 5 -12 38 -16 182 -18 98 -2 178 -2 180 -2 2 1 31 231 32 252 0
12 19 -3 28 -23 6 -14 17 -25 24 -25 28 0 98 34 98 47 0 8 -24 75 -52 149
l-53 134 -75 32 c-68 29 -86 33 -185 35 -91 2 -121 -2 -175 -20z m338 -34 c74
-26 86 -42 60 -74 -11 -14 -39 -14 -220 -6 l-207 10 -6 29 c-4 16 -5 31 -3 32
1 1 32 12 68 24 84 28 202 22 308 -15z m-379 -134 c12 -91 12 -92 -14 -131
l-26 -39 -30 22 c-20 14 -29 27 -26 38 24 76 72 201 77 201 4 0 13 -41 19 -91z
m515 -51 c20 -56 33 -105 29 -109 -5 -4 -20 -10 -34 -14 -23 -6 -30 -1 -48 29
-19 30 -22 45 -16 93 8 79 14 103 24 103 4 0 25 -46 45 -102z m-426 -127 c2
-199 1 -212 -15 -209 -16 3 -20 23 -30 153 -6 83 -14 178 -17 212 l-7 63 33
-3 33 -3 3 -213z m47 146 c-1 -246 -6 -357 -15 -357 -6 0 -10 79 -10 216 0
168 3 215 13 212 8 -3 12 -27 12 -71z m163 8 c2 -27 1 -122 -3 -210 l-7 -160
-69 3 -69 4 0 66 c0 37 3 131 7 210 l6 143 66 -3 66 -3 3 -50z m43 -161 c-1
-115 -5 -211 -7 -213 -17 -17 -21 41 -16 222 3 143 8 207 16 204 7 -2 9 -69 7
-213z m89 203 c0 -2 -7 -53 -16 -113 -8 -60 -19 -151 -24 -202 -4 -52 -11 -96
-15 -100 -15 -16 -20 24 -13 130 3 62 7 152 7 201 l1 87 30 0 c17 0 30 -1 30
-3z"/>
</g>
</svg>
