<svg width="44" height="41" viewBox="0 0 44 41" fill="none" xmlns="http://www.w3.org/2000/svg">
<path d="M17 1H26V5H25.5M17.5 5V1.5M17.5 5L10 6.5L6.5 9M17.5 5H25.5M6.5 9L1 23.5L5.5 26.5L9.5 22.5M6.5 9L8 11.5M9.5 22.5L11.5 40H32.5L34.1509 22.5M9.5 22.5L8.06818 12M8 11.5L7.5 13.5M8 11.5L8.06818 12M35 13.5L37 10M35 13.5L34.1509 22.5M35 13.5H23M37 10L35 7.5L25.5 5M37 10L42.5 25L37.5 27.5L34.1509 22.5M7.5 13.5L8.06818 12M7.5 13.5H20.9239M20.9239 13.5C21.0906 14 21 13 21 14C21 15.2 21 22.6667 21 25L20 25.5H18.5V27.5V29.5H25.5V28V25.5H24L23 25V13.5M20.9239 13.5H23" stroke="black"/>
<path d="M21 12.5V13.5H22.5V13V11.5L22 11H21.5L21 11.5V12.5Z" fill="black" stroke="black"/>
</svg>
