<?xml version="1.0" standalone="no"?>
<!DOCTYPE svg PUBLIC "-//W3C//DTD SVG 20010904//EN"
 "http://www.w3.org/TR/2001/REC-SVG-20010904/DTD/svg10.dtd">
<svg version="1.0" xmlns="http://www.w3.org/2000/svg"
 width="78.000000pt" height="77.000000pt" viewBox="0 0 78.000000 77.000000"
 preserveAspectRatio="xMidYMid meet">
<metadata>
Created by potrace 1.10, written by Peter Selinger 2001-2011
</metadata>
<g transform="translate(0.000000,77.000000) scale(0.100000,-0.100000)"
fill="#000000" stroke="none">
<path d="M310 672 c0 -27 -5 -30 -86 -58 -80 -27 -87 -32 -99 -64 -7 -19 -29
-80 -49 -135 -20 -54 -34 -105 -32 -112 5 -11 80 -53 97 -53 3 0 12 14 19 31
7 16 16 26 20 22 4 -4 12 -64 18 -131 5 -68 14 -128 19 -133 5 -5 86 -12 180
-15 l172 -7 5 36 c3 21 8 52 11 69 3 18 5 63 6 101 1 37 5 70 10 73 5 3 16
-10 25 -30 l17 -34 46 20 c25 10 50 23 55 28 9 9 -88 277 -108 297 -4 4 -40
19 -79 33 -65 22 -72 28 -77 55 l-5 30 -83 3 -82 3 0 -29z m142 -4 c5 -30 1
-32 -57 -29 -67 3 -70 4 -62 24 4 10 22 14 61 13 31 0 57 -4 58 -8z m93 -83
c37 -13 69 -26 72 -28 2 -3 1 -16 -3 -31 -6 -26 -7 -26 -105 -26 -94 0 -99 1
-99 21 0 12 -5 19 -12 16 -7 -2 -12 -12 -10 -21 3 -14 -8 -15 -100 -10 -57 4
-104 8 -106 9 -2 1 -4 15 -5 29 -2 24 4 29 48 45 34 13 82 19 151 20 84 1 112
-3 169 -24z m-381 -82 c3 -16 8 -56 11 -90 6 -54 4 -66 -15 -93 -23 -32 -46
-38 -74 -17 -17 13 -16 19 20 120 22 59 42 107 46 107 3 0 9 -12 12 -27z m486
-4 c0 -6 16 -54 36 -106 19 -52 34 -96 32 -97 -7 -4 -59 -26 -63 -26 -2 0 -13
16 -25 36 -20 31 -22 43 -15 112 4 42 9 80 12 85 7 11 23 8 23 -4z m-275 -23
c7 -2 10 -40 8 -97 -2 -88 -3 -94 -22 -92 -18 2 -21 -3 -21 -32 0 -32 2 -34
45 -41 58 -8 71 -2 70 32 0 22 -5 30 -22 32 -22 3 -23 7 -23 100 l0 98 88 -1
c48 0 90 -3 93 -8 3 -4 0 -46 -7 -95 -6 -48 -14 -121 -18 -162 -4 -41 -9 -95
-12 -120 l-6 -45 -153 5 c-84 3 -156 7 -159 11 -3 3 -12 84 -21 180 -8 95 -18
190 -21 209 l-5 35 88 -3 c48 -2 93 -5 98 -6z m33 -212 c34 -10 26 -24 -13
-24 -33 0 -43 8 -28 23 8 8 12 8 41 1z"/>
</g>
</svg>
