<?xml version="1.0" standalone="no"?>
<!DOCTYPE svg PUBLIC "-//W3C//DTD SVG 20010904//EN"
 "http://www.w3.org/TR/2001/REC-SVG-20010904/DTD/svg10.dtd">
<svg version="1.0" xmlns="http://www.w3.org/2000/svg"
 width="81.000000pt" height="70.000000pt" viewBox="0 0 81.000000 70.000000"
 preserveAspectRatio="xMidYMid meet">
<metadata>
Created by potrace 1.10, written by Peter Selinger 2001-2011
</metadata>
<g transform="translate(0.000000,70.000000) scale(0.100000,-0.100000)"
fill="#000000" stroke="none">
<path d="M270 609 c-36 -12 -71 -24 -79 -28 -8 -4 -31 -52 -53 -106 -21 -55
-45 -117 -53 -137 l-15 -38 42 -30 c50 -37 71 -38 86 -4 20 43 32 17 32 -69 1
-74 12 -162 21 -171 2 -2 83 -7 180 -11 l176 -8 7 33 c3 18 9 77 13 131 3 55
10 99 14 99 5 0 16 -14 24 -31 9 -17 22 -29 28 -26 79 31 97 41 97 49 0 5 -9
30 -19 56 -11 26 -36 90 -56 144 l-38 96 -86 36 c-77 32 -96 36 -171 36 -57
-1 -107 -8 -150 -21z m296 -35 c85 -32 92 -38 86 -71 l-5 -26 -206 7 c-175 6
-208 9 -218 23 -25 32 -15 52 30 64 23 6 51 15 62 19 11 5 57 9 101 9 65 1 96
-4 150 -25z m-358 -154 c10 -84 9 -94 -22 -133 -13 -17 -16 -17 -45 -2 -17 8
-31 21 -31 27 0 6 14 50 31 97 17 47 33 92 36 100 8 30 21 -7 31 -89z m498 -5
c19 -43 45 -118 47 -133 1 -7 -12 -19 -30 -27 -32 -13 -33 -13 -54 22 -19 30
-21 44 -16 107 4 40 10 81 14 91 6 17 8 16 16 -6 6 -13 16 -37 23 -54z m-234
39 c119 -4 165 -9 163 -18 -4 -11 -45 -373 -45 -397 0 -9 -31 -10 -128 -5 -70
4 -143 11 -162 15 l-35 7 -12 139 c-6 77 -14 170 -17 208 l-6 67 37 -5 c21 -2
113 -7 205 -11z"/>
</g>
</svg>
