<?xml version="1.0" standalone="no"?>
<!DOCTYPE svg PUBLIC "-//W3C//DTD SVG 20010904//EN"
 "http://www.w3.org/TR/2001/REC-SVG-20010904/DTD/svg10.dtd">
<svg version="1.0" xmlns="http://www.w3.org/2000/svg"
 width="74.000000pt" height="64.000000pt" viewBox="0 0 74.000000 64.000000"
 preserveAspectRatio="xMidYMid meet">
<metadata>
Created by potrace 1.10, written by Peter Selinger 2001-2011
</metadata>
<g transform="translate(0.000000,64.000000) scale(0.100000,-0.100000)"
fill="#000000" stroke="none">
<path d="M243 585 c-87 -24 -120 -41 -126 -66 -3 -13 -23 -68 -46 -122 -23
-53 -41 -105 -41 -115 0 -18 67 -62 95 -62 8 0 20 11 25 25 18 48 27 24 33
-89 4 -63 10 -121 13 -130 5 -13 27 -16 133 -17 69 -1 148 -2 175 -3 47 -1 50
1 58 29 4 17 11 74 14 127 7 100 16 117 36 73 13 -29 24 -31 79 -8 40 15 41
17 35 52 -3 20 -25 86 -49 146 l-43 110 -74 26 c-95 33 -240 44 -317 24z m295
-45 c73 -22 84 -35 63 -69 -8 -12 -44 -13 -216 -8 -114 3 -209 8 -212 10 -2 3
-5 17 -6 32 -2 26 2 29 58 46 80 24 213 19 313 -11z m-384 -77 c14 -73 17
-142 7 -159 -30 -52 -38 -57 -71 -44 -16 7 -30 17 -30 23 0 18 75 207 82 207
3 0 9 -12 12 -27z m515 -86 c18 -50 35 -97 38 -102 3 -10 -65 -42 -71 -33 -36
54 -38 62 -31 127 7 75 13 101 23 101 4 0 22 -42 41 -93z m-82 49 c1 0 -5 -46
-12 -101 -8 -55 -20 -145 -28 -200 l-13 -100 -32 1 c-18 0 -88 1 -157 2 -147
2 -128 -24 -145 207 -7 88 -14 171 -17 184 l-6 23 204 -7 c112 -4 205 -8 206
-9z"/>
<path d="M277 338 c4 -18 8 -75 7 -125 -1 -92 9 -119 23 -65 11 38 7 162 -6
195 -15 39 -35 35 -24 -5z"/>
<path d="M458 333 c-12 -30 -17 -197 -6 -208 16 -16 26 7 18 41 -8 33 -3 83
16 167 4 17 2 27 -5 27 -6 0 -17 -12 -23 -27z"/>
</g>
</svg>
