<svg width="47" height="40" viewBox="0 0 47 40" fill="none" xmlns="http://www.w3.org/2000/svg">
<path d="M17.8335 30.9685L17.5 33C17.5 33 17.5 33.0315 17.1669 32V28.937V24.874V21.3189V18.7795L17.0002 16.748C17.0002 16.4094 16.3668 14.9063 16.5001 14.5C16.6335 14.0937 17.3335 15.0551 17.3335 15.2244L17.5002 15.7323L17.8335 16.748C17.8891 17.2559 18.0002 19.5921 18.0002 20.811V22.3346V25.8898V29.4449L17.8335 30.9685Z" fill="black" stroke="black"/>
<path d="M30.1667 16.0316L30.5002 14.0001C30.5002 14.0001 30.5002 13.9687 30.8334 15.0001L30.8334 18.0631V22.1261V25.6813V28.2206L31 30.2521C31 30.5907 31.6334 32.0938 31.5001 32.5001C31.3668 32.9064 30.6667 31.945 30.6667 31.7757L30.5 31.2679L30.1667 30.2521C30.1112 29.7443 30 27.408 30 26.1891V24.6655V21.1103V17.5552L30.1667 16.0316Z" fill="black" stroke="black"/>
<path d="M41.5 7L35.5 1H11L7 4M41.5 7L45.5 20.5L40.5 25.5L38.1 21.5M41.5 7L38.5 10M38.5 10L38.1 20.5V21.5M38.5 10H8.5M8.5 10L7 4M8.5 10V20.5M7 4L1 20.5L4.5 25.5L8.5 20.5M8.5 20.5L11 39H35.5L38.1 21.5" stroke="black"/>
</svg>
