<?xml version="1.0" standalone="no"?>
<!DOCTYPE svg PUBLIC "-//W3C//DTD SVG 20010904//EN"
 "http://www.w3.org/TR/2001/REC-SVG-20010904/DTD/svg10.dtd">
<svg version="1.0" xmlns="http://www.w3.org/2000/svg"
 width="90.000000pt" height="73.000000pt" viewBox="0 0 90.000000 73.000000"
 preserveAspectRatio="xMidYMid meet">
<metadata>
Created by potrace 1.10, written by Peter Selinger 2001-2011
</metadata>
<g transform="translate(0.000000,73.000000) scale(0.100000,-0.100000)"
fill="#000000" stroke="none">
<path d="M372 672 c-7 -2 -12 -16 -12 -30 0 -25 -6 -29 -81 -51 -52 -16 -86
-32 -94 -45 -8 -12 -31 -68 -53 -126 -22 -58 -43 -113 -47 -122 -5 -13 5 -23
44 -42 62 -32 65 -32 79 -1 6 14 15 25 20 25 5 0 12 -57 15 -127 4 -72 11
-130 17 -133 13 -8 351 -22 359 -15 2 3 10 61 15 129 6 69 14 127 17 131 4 3
12 -8 19 -25 7 -16 16 -30 21 -30 23 0 99 46 99 60 0 8 -18 62 -41 120 -22 58
-45 117 -50 131 -10 27 -48 48 -126 70 -38 11 -43 16 -43 41 0 16 -6 30 -12
33 -19 6 -133 12 -146 7z m132 -39 c10 -25 -3 -30 -66 -25 -49 3 -58 7 -58 23
0 17 8 19 59 19 46 0 60 -4 65 -17z m86 -75 c73 -24 79 -29 72 -65 l-5 -26
-206 7 c-176 5 -208 9 -218 23 -26 34 -15 47 55 69 83 26 206 22 302 -8z
m-371 -147 c10 -81 10 -87 -12 -118 -12 -18 -24 -33 -27 -33 -3 0 -19 9 -37
20 l-32 19 35 80 c18 43 34 88 34 98 0 23 11 36 21 26 4 -5 13 -46 18 -92z
m506 -25 c19 -53 35 -101 35 -106 0 -5 -13 -16 -30 -25 -30 -15 -30 -15 -51
17 -17 28 -20 44 -16 115 4 73 13 111 23 101 2 -2 19 -48 39 -102z m-418 57
c2 -6 -3 -28 -12 -49 -10 -23 -12 -41 -6 -47 12 -12 41 43 41 78 l0 27 113 -6
c61 -3 113 -5 115 -6 1 0 2 -9 2 -20 0 -35 29 -95 40 -84 7 7 5 23 -5 47 -23
54 -20 67 15 67 36 0 35 7 15 -184 -8 -78 -18 -165 -21 -194 l-6 -53 -156 7
c-86 4 -160 11 -164 17 -3 5 -9 60 -13 121 -3 61 -11 146 -16 190 -6 43 -8 84
-6 90 6 15 59 15 64 -1z"/>
</g>
</svg>
