<svg width="42" height="38" viewBox="0 0 42 38" fill="none" xmlns="http://www.w3.org/2000/svg">
<path d="M25.4998 5V1H17V5M25.4998 5H17M25.4998 5L34.5 8M17 5L7.5 8M7.5 8L1 22L6 25L9.5 21M7.5 8L8.19231 12.5M9.5 21L11 37.5H31L32.839 22M9.5 21L8.19231 12.5M34.5 8L40.5 23L36 26.5L32.839 22M34.5 8L33.9661 12.5M32.839 22L33.9661 12.5M33.9661 12.5H29M8.19231 12.5H13.5M14.5 12.5C13.5 14.5 14.3 19 13.5 19C12.5 19 13 14 13.5 12.5M14.5 12.5H13.5M14.5 12.5H28M28 12.5C28 14.5 28.2 18.6 29 19C30 19.5 28 14 29 12.5M28 12.5H29" stroke="black"/>
</svg>
