<svg width="42" height="40" viewBox="0 0 42 40" fill="none" xmlns="http://www.w3.org/2000/svg">
<path d="M24.9998 5.50006L24.9998 1L16.9998 1L16.9998 5.50006M24.9998 5.50006L16.9998 5.50006M24.9998 5.50006L34 8.50006M16.9998 5.50006L12.4998 6.5L6.5 7.50006M6.5 7.50006L5.5 10L1 22.5001L5.5 25.5001L8.5 21.5001M6.5 7.50006L8.5 21.5001M8.5 21.5001L11.5 38.5001L19.5 38.7223M34 11.2501L34 8.50006M34 11.2501L22 11.2501M34 11.2501L33.25 16.8751L32.5 22.5001M34 8.50006L40.5 24.0001L36.5 26.5001L32.5 22.5001M32.5 22.5001L29.5 39.0001L22 38.7917M7.69042 11.9641L7.5 11.2501L22 11.2501M19.5 11.2501L19.5 38.7223M19.5 38.7223L22 38.7917M22 38.7917L22 11.2501" stroke="black"/>
</svg>
