<?xml version="1.0" standalone="no"?>
<!DOCTYPE svg PUBLIC "-//W3C//DTD SVG 20010904//EN"
 "http://www.w3.org/TR/2001/REC-SVG-20010904/DTD/svg10.dtd">
<svg version="1.0" xmlns="http://www.w3.org/2000/svg"
 width="81.000000pt" height="72.000000pt" viewBox="0 0 81.000000 72.000000"
 preserveAspectRatio="xMidYMid meet">
<metadata>
Created by potrace 1.10, written by Peter Selinger 2001-2011
</metadata>
<g transform="translate(0.000000,72.000000) scale(0.100000,-0.100000)"
fill="#000000" stroke="none">
<path d="M336 665 c-3 -8 -3 -21 0 -29 4 -10 -17 -20 -81 -37 -72 -19 -89 -27
-100 -49 -26 -51 -95 -230 -95 -248 0 -12 17 -27 50 -42 27 -13 51 -22 52 -19
2 2 8 13 14 23 24 44 31 25 38 -101 3 -70 10 -131 14 -134 4 -4 86 -10 183
-13 193 -8 189 -9 189 52 0 45 22 202 29 202 3 0 14 -13 23 -30 l17 -29 50 22
c28 12 51 27 51 34 0 22 -93 258 -109 275 -9 9 -45 27 -80 40 -56 20 -66 27
-73 54 -7 28 -13 32 -54 38 -76 10 -111 7 -118 -9z m142 -27 c22 -22 12 -28
-47 -28 -55 0 -91 16 -74 33 11 12 108 8 121 -5z m92 -80 c60 -24 65 -28 68
-58 l3 -33 -108 7 c-343 19 -324 17 -334 43 -13 36 -12 40 19 46 15 3 43 10
62 16 64 18 217 7 290 -21z m-376 -144 c6 -72 4 -79 -20 -111 -25 -33 -25 -33
-56 -17 -35 18 -35 18 14 146 39 104 52 100 62 -18z m511 -37 c20 -55 35 -100
33 -101 -22 -17 -54 -36 -58 -36 -4 0 -16 18 -29 40 -21 37 -21 45 -12 116 6
41 11 81 11 87 0 26 20 -13 55 -106z m-326 77 c2 -1 0 -95 -4 -208 l-7 -206
-54 0 c-47 0 -56 3 -63 23 -5 12 -14 94 -20 182 -7 88 -15 175 -18 193 l-6 34
84 -7 c46 -4 86 -9 88 -11z m48 -206 c-3 -117 -6 -215 -6 -217 -1 -3 -6 0 -12
6 -11 11 -14 397 -3 415 3 4 10 8 16 8 7 0 8 -67 5 -212z m187 172 c-2 -30 -9
-94 -29 -250 -8 -63 -14 -121 -15 -128 0 -10 -17 -12 -62 -10 -53 3 -63 6 -62
21 0 9 1 103 2 207 l2 191 83 -3 c80 -3 82 -3 81 -28z"/>
</g>
</svg>
