<?xml version="1.0" standalone="no"?>
<!DOCTYPE svg PUBLIC "-//W3C//DTD SVG 20010904//EN"
 "http://www.w3.org/TR/2001/REC-SVG-20010904/DTD/svg10.dtd">
<svg version="1.0" xmlns="http://www.w3.org/2000/svg"
 width="89.000000pt" height="122.000000pt" viewBox="0 0 89.000000 122.000000"
 preserveAspectRatio="xMidYMid meet">
<metadata>
Created by potrace 1.10, written by Peter Selinger 2001-2011
</metadata>
<g transform="translate(0.000000,122.000000) scale(0.100000,-0.100000)"
fill="#000000" stroke="none">
<path d="M40 1154 c0 -13 18 -15 134 -12 l133 2 86 -79 c78 -72 86 -84 87
-117 0 -44 -8 -68 -24 -68 -17 0 -176 109 -183 126 -3 8 -1 32 5 53 9 38 9 39
-21 45 -16 3 -67 6 -113 6 -68 0 -84 -3 -84 -15 0 -12 17 -15 96 -15 l97 0 -6
-42 c-3 -24 -28 -178 -56 -343 -81 -475 -90 -525 -102 -608 -11 -69 -8 -100 6
-85 5 5 93 517 121 698 7 52 18 115 23 140 6 25 13 64 16 88 7 45 15 51 35 27
7 -8 52 -40 101 -71 49 -31 89 -60 89 -65 0 -6 -27 -69 -59 -142 -146 -327
-291 -659 -291 -668 0 -27 23 -2 46 49 14 31 31 71 39 87 7 17 31 70 53 120
22 50 53 122 69 160 l30 70 126 3 127 3 0 64 0 65 -96 0 c-73 0 -95 3 -91 13
3 6 22 50 42 96 29 65 35 89 27 101 -11 19 -2 120 11 121 18 2 147 -73 147
-85 0 -32 -30 -444 -35 -471 -2 -16 -9 -100 -15 -185 -6 -85 -13 -170 -16
-187 -5 -26 -3 -33 10 -33 9 0 16 3 16 8 0 4 11 153 25 332 14 179 28 373 32
433 3 59 9 107 13 107 11 0 20 -27 20 -55 0 -13 18 -115 41 -227 22 -112 55
-290 73 -396 18 -106 36 -195 40 -199 15 -15 18 11 8 69 -6 35 -18 106 -27
158 -8 52 -36 201 -61 330 -25 129 -50 258 -55 286 l-10 51 -106 49 c-91 42
-121 62 -201 137 l-94 87 -139 0 c-119 0 -139 -2 -139 -16z m558 -593 l3 -41
-110 0 c-61 0 -111 2 -111 5 0 3 9 22 19 43 l19 37 88 -2 89 -2 3 -40z"/>
</g>
</svg>
