<?xml version="1.0" standalone="no"?>
<!DOCTYPE svg PUBLIC "-//W3C//DTD SVG 20010904//EN"
 "http://www.w3.org/TR/2001/REC-SVG-20010904/DTD/svg10.dtd">
<svg version="1.0" xmlns="http://www.w3.org/2000/svg"
 width="89.000000pt" height="126.000000pt" viewBox="0 0 89.000000 126.000000"
 preserveAspectRatio="xMidYMid meet">
<metadata>
Created by potrace 1.10, written by Peter Selinger 2001-2011
</metadata>
<g transform="translate(0.000000,126.000000) scale(0.100000,-0.100000)"
fill="#000000" stroke="none">
<path d="M28 1244 c-20 -20 2 -24 127 -24 l136 0 84 -82 85 -82 0 -52 c0 -29
-5 -56 -10 -59 -6 -4 -27 7 -48 23 -20 16 -63 46 -94 66 l-56 38 5 54 6 54
-111 0 c-61 0 -113 -4 -116 -9 -3 -4 40 -11 96 -15 56 -3 103 -7 104 -9 1 -1
-15 -99 -36 -217 -21 -118 -45 -258 -53 -310 -9 -52 -34 -200 -56 -328 -47
-268 -47 -269 -26 -252 8 7 15 22 15 34 0 12 22 145 49 296 27 151 63 363 81
470 18 107 34 196 35 198 3 4 177 -111 207 -136 11 -9 15 -20 10 -26 -5 -6
-34 -72 -66 -146 -32 -74 -62 -143 -67 -152 -25 -48 -229 -517 -229 -527 0
-20 20 -12 29 12 5 12 21 49 36 82 45 99 70 154 125 280 29 66 54 122 57 124
2 3 26 -3 54 -13 88 -32 165 -8 194 61 8 20 17 34 20 31 3 -2 0 -54 -6 -114
-6 -60 -19 -190 -28 -289 -15 -156 -14 -212 3 -194 5 5 19 149 41 409 8 96 19
219 25 273 5 54 10 125 10 158 0 44 3 60 13 57 6 -3 13 -18 15 -34 2 -16 17
-103 33 -194 34 -183 118 -671 119 -682 0 -5 7 -8 16 -8 12 0 15 6 10 22 -3
13 -22 117 -41 233 -38 226 -99 561 -116 637 -12 51 -11 50 -196 149 -22 12
-78 59 -124 105 l-82 84 -101 0 c-56 0 -117 3 -136 6 -19 3 -38 2 -42 -2z
m520 -243 c27 -16 59 -32 72 -36 22 -7 23 -9 17 -109 -4 -55 -9 -116 -13 -134
l-6 -32 -99 0 c-97 0 -121 8 -101 33 5 7 24 48 42 91 26 62 31 83 22 97 -7 11
-8 28 -2 48 4 16 6 39 3 51 -7 27 7 25 65 -9z m42 -356 c-33 -87 -97 -114
-190 -81 -39 14 -40 17 -20 69 l14 37 103 0 103 0 -10 -25z"/>
</g>
</svg>
