<svg width="43" height="31" viewBox="0 0 43 31" fill="none" xmlns="http://www.w3.org/2000/svg">
<path d="M39 22V20H16V22M39 22H16M39 22V23.5C37.5 23.5 33 23 31.5 24.5C30 26 28.8333 27.3333 27 28.5L23.5 24.5C22 23.5 18.5811 23.5 17 23.5C16.0002 23.5 16 23.5 16 22" stroke="black"/>
<path d="M4.00008 8.5L3.00009 12.5C2.16675 15 1.00012 19 0.999931 22.5C0.999851 24 0.500013 26.5 1.00015 30" stroke="black"/>
<circle cx="27" cy="25" r="1" stroke="black"/>
<path d="M42.5 1H4V8.5H23.25M42.5 8.5H23.25M23.25 8.5V9.5H30.5C29.3333 10.5 27 12.6 27 13C27 13.4 27 18.5 27 19.5" stroke="black"/>
<path d="M23.5 1V8.5H19.5V1H23.5Z" stroke="black"/>
</svg>
