<svg width="43" height="31" viewBox="0 0 43 31" fill="none" xmlns="http://www.w3.org/2000/svg">
<path d="M4.22225 8.5L3.22225 12.5C2.38892 15 1.22229 19 1.2221 22.5C1.22202 24 0.722181 26.5 1.22232 30" stroke="black"/>
<path d="M34 20.5V23" stroke="black"/>
<path d="M27.5 24.5L20.5 23" stroke="black"/>
<path d="M27.5 24.5L34 22.5" stroke="black"/>
<circle cx="27" cy="22" r="1" fill="#D9D9D9" stroke="black"/>
<path d="M34 19H20.5V20.5H34V19Z" stroke="black"/>
<path d="M20.5 21.5V23.5" stroke="black"/>
<path d="M42.7222 1H4.22217V8.5H23.4722M42.7222 8.5H23.4722M23.4722 8.5V9.5H30.7222C29.5555 10.5 27.2222 12.6 27.2222 13C27.2222 13.4 27.2222 18.5 27.2222 19.5" stroke="black"/>
<path d="M23.7222 1V8.5H19.7222V1H23.7222Z" stroke="black"/>
</svg>
