<svg width="43" height="31" viewBox="0 0 43 31" fill="none" xmlns="http://www.w3.org/2000/svg">
<path d="M27.5 26L27 25.5L26.4118 24.7143C23.9412 24.4286 19 23.6857 19 23" stroke="black"/>
<path d="M36.5 19H19V21H36.5V19Z" stroke="black"/>
<path d="M4.22225 8.5L3.22225 12.5C2.38892 15 1.22229 19 1.2221 22.5C1.22202 24 0.722181 26.5 1.22232 30" stroke="black"/>
<path d="M42.7222 1H4.22217V8.5H23.4722M42.7222 8.5H23.4722M23.4722 8.5V9.5H30.7222C29.5555 10.5 27.2222 12.6 27.2222 13C27.2222 13.4 27.2222 18.5 27.2222 19.5" stroke="black"/>
<path d="M27 25.5L27.5 26L29 24.5C31.5 24.1667 36.5 23.4 36.5 23" stroke="black"/>
<circle cx="28" cy="23" r="1" stroke="black"/>
<path d="M19 21V23" stroke="black"/>
<path d="M36.5 21V23" stroke="black"/>
</svg>
