<svg width="64" height="107" viewBox="0 0 64 107" fill="none" xmlns="http://www.w3.org/2000/svg">
<path d="M47 1C41.6667 2.33333 27.8 4.2 17 1" stroke="black"/>
<path d="M17 1V3.5V8L18 11.5L19 15.5L20.5 20.5L22.5 26.5L24 30L29.5 39L32 43" stroke="black"/>
<path d="M47 1V3.5V6L46.5 8.5L45.5 13.5L44 18L42.5 23.5L40 30L34.5 39L32 43" stroke="black"/>
<path d="M46.5 1H47L61.5 8.5V11.5V15L61 19L60.5 23V31L61 36L62 47L61 51L60.5 53L60 56L59.5 58.5V65V67.5C59.6667 68.6667 60 71.1 60 71.5C60 71.9 60.6667 76.3333 61 78.5L62.5 90.5L60 93.5L58 95.5L48 103.5L45 106L31.5 96" stroke="black"/>
<path d="M17.5 1H16.5L2 8.5V11.5V15L2.5 19L3 23V31L2.5 36L1.5 47L2.5 51L3 53L3.5 56L4 58.5V65V67.5C3.83333 68.6667 3.5 71.1 3.5 71.5C3.5 71.9 2.83333 76.3333 2.5 78.5L1 90.5L3.5 93.5L5.5 95.5L15.5 103.5L18.5 106L32 96" stroke="black"/>
<path d="M18 72H5.5V76H18V72Z" stroke="black"/>
<path d="M58.5 71H46V75H58.5V71Z" stroke="black"/>
<path d="M58.5 40H46V44H58.5V40Z" stroke="black"/>
<path d="M32 96.5L30 93.4762V46.5333L32 43" stroke="black"/>
<circle cx="32.5" cy="47.5" r="1" stroke="black"/>
<circle cx="32.5" cy="62.5" r="1" stroke="black"/>
<circle cx="32.5" cy="77.5" r="1" stroke="black"/>
<circle cx="32.5" cy="91.5" r="1" stroke="black"/>
</svg>
