<?xml version="1.0" standalone="no"?>
<!DOCTYPE svg PUBLIC "-//W3C//DTD SVG 20010904//EN"
 "http://www.w3.org/TR/2001/REC-SVG-20010904/DTD/svg10.dtd">
<svg version="1.0" xmlns="http://www.w3.org/2000/svg"
 width="269.000000pt" height="160.000000pt" viewBox="0 0 269.000000 160.000000"
 preserveAspectRatio="xMidYMid meet">

<g transform="translate(0.000000,160.000000) scale(0.100000,-0.100000)"
fill="#000000" stroke="none">
<path d="M1795 1483 c-174 -6 -1421 -26 -1518 -24 -85 2 -113 -1 -132 -13
l-24 -16 5 -567 c7 -772 6 -752 29 -769 15 -11 76 -13 324 -9 409 6 1000 14
1591 21 350 4 487 9 492 17 4 7 8 309 8 673 0 628 -1 662 -18 677 -17 15 -54
17 -353 15 -184 -1 -365 -3 -404 -5z m672 -123 c8 -18 14 -174 19 -550 4 -289
6 -534 6 -544 -2 -40 -28 -51 -125 -52 -384 -5 -981 -15 -1122 -19 -93 -3
-359 -8 -590 -11 -380 -6 -421 -5 -434 9 -10 13 -14 116 -16 524 -3 586 -2
608 29 628 18 12 101 16 441 21 231 3 589 10 795 14 206 4 512 6 680 6 l305
-1 12 -25z"/>
<path d="M2065 946 c-60 -17 -102 -61 -128 -134 -51 -140 62 -284 209 -269 82
8 136 37 172 92 27 41 32 58 32 109 0 74 -40 152 -94 186 -45 27 -126 34 -191
16z m161 -130 c49 -49 47 -86 -10 -142 -50 -51 -88 -57 -142 -23 -76 47 -84
101 -25 160 35 35 44 39 91 39 46 0 56 -4 86 -34z"/>
</g>
</svg>
