<?xml version="1.0" standalone="no"?>
<!DOCTYPE svg PUBLIC "-//W3C//DTD SVG 20010904//EN"
 "http://www.w3.org/TR/2001/REC-SVG-20010904/DTD/svg10.dtd">
<svg version="1.0" xmlns="http://www.w3.org/2000/svg"
 width="264.000000pt" height="167.000000pt" viewBox="0 0 264.000000 167.000000"
 preserveAspectRatio="xMidYMid meet">

<g transform="translate(0.000000,167.000000) scale(0.100000,-0.100000)"
fill="#000000" stroke="none">
<path d="M2116 1493 c-2 -2 -439 -17 -476 -16 -20 1 -1199 -22 -1399 -27 -66
-1 -87 -12 -93 -45 -3 -14 -1 -143 3 -288 5 -144 11 -343 14 -442 13 -503 19
-584 46 -593 17 -7 244 -2 614 14 105 4 199 7 210 6 11 0 110 3 220 8 110 5
272 12 360 15 88 3 205 8 260 11 55 3 216 9 357 13 195 5 260 11 273 21 15 13
16 39 11 284 -4 149 -9 428 -11 620 -5 331 -8 397 -21 418 -5 8 -360 8 -368 1z
m264 -93 c20 -20 28 -83 12 -106 -7 -12 -452 -32 -867 -40 -115 -2 -318 -8
-450 -14 -132 -5 -357 -10 -499 -10 -142 0 -263 -3 -267 -6 -15 -9 -46 15 -53
39 -10 40 7 80 37 88 15 4 132 10 260 13 880 19 1654 43 1790 55 9 0 26 -8 37
-19z m3 -215 c21 -21 26 -116 29 -537 2 -252 0 -370 -8 -378 -11 -11 -64 -15
-359 -25 -93 -3 -233 -10 -310 -15 -77 -5 -291 -14 -475 -20 -184 -6 -463 -15
-620 -20 -157 -5 -297 -6 -311 -3 -16 3 -32 16 -39 31 -15 31 -28 344 -29 674
-1 205 0 218 18 228 11 5 123 12 253 15 128 4 240 8 249 11 9 2 155 6 324 9
170 2 372 9 449 14 78 6 285 12 460 15 175 3 321 8 324 11 10 9 30 5 45 -10z"/>
</g>
</svg>
