<?xml version="1.0" standalone="no"?>
<!DOCTYPE svg PUBLIC "-//W3C//DTD SVG 20010904//EN"
 "http://www.w3.org/TR/2001/REC-SVG-20010904/DTD/svg10.dtd">
<svg version="1.0" xmlns="http://www.w3.org/2000/svg"
 width="274.000000pt" height="158.000000pt" viewBox="0 0 274.000000 158.000000"
 preserveAspectRatio="xMidYMid meet">

<g transform="translate(0.000000,158.000000) scale(0.100000,-0.100000)"
fill="#000000" stroke="none">
<path d="M775 1413 c-22 -1 -176 -4 -343 -5 -365 -4 -337 8 -328 -143 4 -55 9
-201 12 -325 4 -203 9 -324 31 -728 3 -67 11 -129 17 -138 10 -13 56 -15 339
-15 180 0 331 2 335 5 5 3 197 8 428 11 230 3 536 8 679 10 143 2 267 6 276
10 9 3 36 41 60 83 24 42 56 95 72 117 16 22 35 56 43 75 8 19 37 69 63 110
85 132 171 284 171 303 0 27 -35 90 -83 149 -79 97 -262 342 -296 396 -64 100
6 92 -763 90 -370 -1 -691 -3 -713 -5z m1365 -108 c58 -55 380 -499 380 -524
0 -7 -105 -199 -171 -311 -24 -41 -65 -104 -91 -139 -26 -35 -50 -76 -53 -92
-3 -15 -14 -34 -25 -44 -21 -19 -47 -20 -775 -29 -242 -3 -595 -9 -785 -12
-286 -4 -348 -3 -364 9 -24 18 -31 103 -45 527 -18 554 -18 587 0 606 19 18
27 18 1074 29 313 3 570 7 571 8 1 1 59 2 128 2 l125 0 31 -30z"/>
<path d="M2086 1065 c-90 -32 -141 -105 -133 -190 10 -123 81 -195 194 -197
130 -1 203 70 203 200 0 69 -47 144 -110 177 -42 21 -111 26 -154 10z m87 -94
c58 -14 87 -46 87 -97 0 -62 -42 -104 -103 -104 -38 0 -52 6 -81 34 -20 19
-36 43 -36 56 0 48 51 121 85 120 5 0 27 -4 48 -9z"/>
</g>
</svg>
