<?xml version="1.0" standalone="no"?>
<!DOCTYPE svg PUBLIC "-//W3C//DTD SVG 20010904//EN"
 "http://www.w3.org/TR/2001/REC-SVG-20010904/DTD/svg10.dtd">
<svg version="1.0" xmlns="http://www.w3.org/2000/svg"
 width="289.000000pt" height="167.000000pt" viewBox="0 0 289.000000 167.000000"
 preserveAspectRatio="xMidYMid meet">

<g transform="translate(0.000000,167.000000) scale(0.100000,-0.100000)"
fill="#000000" stroke="none">
<path d="M1747 1484 c-1 -1 -339 -5 -752 -9 -473 -4 -757 -11 -769 -17 -18
-10 -19 -26 -13 -522 4 -281 10 -580 13 -664 6 -137 9 -154 26 -163 13 -7 101
-9 256 -4 131 3 442 8 692 11 559 7 865 13 906 20 24 3 69 41 191 162 88 86
175 171 194 189 83 77 237 240 242 256 4 9 2 176 -4 370 -9 313 -12 353 -27
365 -14 11 -110 13 -485 11 -257 -2 -469 -4 -470 -5z m873 -100 c12 -12 29
-298 30 -497 l0 -97 -238 -238 c-130 -130 -258 -257 -284 -281 l-46 -43 -434
-9 c-985 -19 -1315 -21 -1323 -9 -11 18 -22 292 -30 735 -7 361 -6 382 12 403
18 22 20 22 428 28 226 4 583 9 795 13 597 10 1077 8 1090 -5z"/>
<path d="M2238 1126 c-132 -41 -173 -247 -69 -346 35 -34 109 -60 168 -60 36
0 92 29 132 69 151 151 -20 403 -231 337z m156 -124 c14 -16 29 -45 32 -64 5
-29 1 -41 -26 -71 -20 -23 -44 -39 -66 -43 -102 -19 -174 97 -108 175 23 28
31 31 83 31 50 0 61 -4 85 -28z"/>
</g>
</svg>
