<?xml version="1.0" standalone="no"?>
<!DOCTYPE svg PUBLIC "-//W3C//DTD SVG 20010904//EN"
 "http://www.w3.org/TR/2001/REC-SVG-20010904/DTD/svg10.dtd">
<svg version="1.0" xmlns="http://www.w3.org/2000/svg"
 width="269.000000pt" height="185.000000pt" viewBox="0 0 269.000000 185.000000"
 preserveAspectRatio="xMidYMid meet">

<g transform="translate(0.000000,185.000000) scale(0.100000,-0.100000)"
fill="#000000" stroke="none">
<path d="M196 1841 c-3 -5 -37 -12 -76 -16 -39 -4 -73 -12 -77 -18 -4 -6 -5
-133 -3 -282 1 -148 3 -295 3 -325 0 -328 19 -1115 27 -1130 10 -18 29 -18
457 -15 247 2 482 7 523 10 41 3 181 8 310 10 129 2 369 7 533 11 l299 7 66
103 c37 57 90 143 117 191 48 83 84 144 195 325 l50 81 0 210 c0 224 -17 787
-26 825 l-4 22 -1028 -4 c-693 -2 -1050 -7 -1096 -14 -59 -10 -74 -9 -93 3
-25 17 -168 21 -177 6z m2297 -89 c17 -17 20 -38 23 -163 2 -79 8 -265 14
-413 6 -147 8 -282 4 -299 -3 -16 -19 -52 -35 -79 -16 -27 -29 -52 -29 -56 0
-4 -16 -31 -35 -61 -19 -29 -35 -56 -35 -60 0 -4 -22 -43 -48 -87 -26 -43 -67
-114 -91 -158 -59 -109 -111 -185 -130 -190 -21 -6 -312 -14 -1182 -31 -522
-11 -734 -12 -757 -4 -29 10 -31 13 -36 82 -3 40 -8 385 -11 768 -5 658 -5
696 12 711 20 18 159 24 758 33 187 3 403 7 480 10 77 3 311 8 520 11 209 3
382 9 385 11 3 3 43 3 89 0 65 -5 89 -11 104 -25z"/>
<path d="M2120 1578 c-167 -47 -189 -292 -32 -359 61 -27 106 -26 170 1 76 33
112 85 112 162 0 144 -115 235 -250 196z m125 -130 c21 -25 25 -38 21 -62 -20
-101 -186 -99 -186 2 0 53 40 92 96 92 35 0 47 -5 69 -32z"/>
<path d="M2115 1029 c-32 -9 -76 -45 -100 -83 -23 -35 -24 -152 -2 -194 27
-50 87 -82 166 -89 77 -6 106 5 158 59 69 71 60 189 -21 273 -42 44 -43 45
-107 44 -35 0 -77 -5 -94 -10z m99 -99 c64 -24 86 -93 47 -141 -16 -20 -29
-24 -71 -24 -45 0 -55 4 -77 29 -19 23 -23 36 -19 59 7 35 31 65 61 78 27 11
30 11 59 -1z"/>
</g>
</svg>
