<?xml version="1.0" standalone="no"?>
<!DOCTYPE svg PUBLIC "-//W3C//DTD SVG 20010904//EN"
 "http://www.w3.org/TR/2001/REC-SVG-20010904/DTD/svg10.dtd">
<svg version="1.0" xmlns="http://www.w3.org/2000/svg"
 width="278.000000pt" height="162.000000pt" viewBox="0 0 278.000000 162.000000"
 preserveAspectRatio="xMidYMid meet">

<g transform="translate(0.000000,162.000000) scale(0.100000,-0.100000)"
fill="#000000" stroke="none">
<path d="M2115 1459 c-99 -4 -475 -10 -835 -14 -360 -3 -695 -8 -745 -10 -49
-1 -134 -3 -188 -4 -89 -1 -100 -3 -122 -25 l-24 -24 5 -638 c3 -420 9 -644
16 -657 10 -20 19 -20 472 -13 253 3 657 8 896 11 479 6 547 13 679 67 101 42
181 109 248 209 62 93 87 145 99 209 9 52 8 786 -2 843 -3 21 -11 40 -17 42
-24 8 -309 10 -482 4z m397 -106 c23 -27 28 -92 28 -423 0 -238 -3 -315 -14
-351 -64 -207 -240 -354 -456 -381 -84 -11 -111 -12 -745 -21 -247 -4 -570
-10 -716 -13 -147 -3 -276 -3 -287 0 -16 5 -22 18 -26 49 -11 91 -16 1055 -5
1086 8 23 18 32 42 35 41 6 515 15 1282 22 330 3 602 8 604 10 2 2 66 4 141 4
118 0 139 -2 152 -17z"/>
<path d="M2128 928 c-59 -16 -115 -71 -133 -130 -8 -29 -15 -65 -15 -82 0 -50
38 -113 88 -149 42 -28 56 -32 127 -35 79 -4 82 -3 125 30 60 45 85 97 83 169
-2 88 -51 166 -119 195 -38 16 -101 17 -156 2z m129 -98 c36 -13 63 -57 63
-103 0 -27 -8 -42 -35 -66 -45 -39 -76 -47 -127 -32 -79 24 -106 77 -73 142
31 58 102 83 172 59z"/>
</g>
</svg>
