<svg width="35" height="45" viewBox="0 0 35 45" fill="none" xmlns="http://www.w3.org/2000/svg">
<path d="M27.0029 8.49988H34.0029" stroke="black"/>
<path d="M4.00293 20.9999H6.00293V8.99988" stroke="black"/>
<path d="M30.5029 4.49988C31.0552 4.49988 31.5029 4.94759 31.5029 5.49988C31.5029 6.05216 31.0552 6.49988 30.5029 6.49988C29.9506 6.49988 29.5029 6.05216 29.5029 5.49988C29.5029 4.94759 29.9506 4.49988 30.5029 4.49988Z" stroke="black"/>
<path d="M0.00292969 0.999756H34.0029V37.4998M34.0029 43.4998V37.4998M34.0029 37.4998C31.6696 37.9998 27.0029 37.9998 27.0029 33.9998C27.0029 29.9998 27.0029 15.3331 27.0029 8.49976L11.5029 8.48584L5.00293 8.49876M1.00293 8.49976H4.50293M4.50293 8.49976V14.7428V15.4998V20.9928M4.50293 8.49976L5.00293 8.49876M4.50293 44.9998V26.4858V20.9928M4.50293 20.9928H5.00293V14.7428V8.49876M5.00293 8.49876V9.49976" stroke="black"/>
</svg>
