<svg width="35" height="45" viewBox="0 0 35 45" fill="none" xmlns="http://www.w3.org/2000/svg">
<path d="M27.0029 8.5H34.5029" stroke="black"/>
<path d="M31.5029 4.49988C32.0552 4.49988 32.5029 4.94759 32.5029 5.49988C32.5029 6.05216 32.0552 6.49988 31.5029 6.49988C30.9506 6.49988 30.5029 6.05216 30.5029 5.49988C30.5029 4.94759 30.9506 4.49988 31.5029 4.49988Z" fill="white" stroke="black"/>
<path d="M0.00292969 0.999878H34.0029V37.4999M34.0029 43.4999V37.4999M34.0029 37.4999C31.6696 37.9999 27.0029 37.9999 27.0029 33.9999C27.0029 29.9999 27.0029 15.3332 27.0029 8.49988L11.5029 8.48596L4.50293 8.49988M1.00293 8.49988H4.50293M4.50293 8.49988V14.7429V15.4999V26.4859V44.9999M18.0029 10.986L6.50293 26.4859" stroke="black"/>
</svg>
