<svg width="35" height="45" viewBox="0 0 35 45" fill="none" xmlns="http://www.w3.org/2000/svg">
<path d="M0.00292969 0.499756H34.0029V36.9998M34.0029 42.9998V36.9998M34.0029 36.9998C31.6696 37.4998 27.0029 37.4998 27.0029 33.4998C27.0029 29.4998 27.0029 14.8331 27.0029 7.99976M27.0029 7.99976L4.50293 7.56706M27.0029 7.99976H34.5029M1.00293 7.49976L4.50293 7.56706M4.50293 7.56706V14.9998M4.50293 44.4998V14.9998M4.50293 14.9998C7.35036 15.8372 10.512 15.9645 13.5029 15.5491M24.613 9.99976C25.049 9.35804 25.3539 8.67891 25.5029 7.97091L24.613 9.99976ZM24.613 9.99976C22.7148 12.7937 18.3313 14.8785 13.5029 15.5491M24.613 9.99976H13.5029V15.5491" stroke="black"/>
<path d="M30.0029 3.99976C30.5552 3.99976 31.0029 4.44747 31.0029 4.99976C31.0029 5.55204 30.5552 5.99976 30.0029 5.99976C29.4506 5.99976 29.0029 5.55204 29.0029 4.99976C29.0029 4.44747 29.4506 3.99976 30.0029 3.99976Z" stroke="black"/>
</svg>
