<svg width="35" height="45" viewBox="0 0 35 45" fill="none" xmlns="http://www.w3.org/2000/svg">
<path d="M27.0029 7.99988H33.5029" stroke="black"/>
<path d="M31.5029 3.49988C32.0552 3.49988 32.5029 3.94759 32.5029 4.49988C32.5029 5.05216 32.0552 5.49988 31.5029 5.49988C30.9506 5.49988 30.5029 5.05216 30.5029 4.49988C30.5029 3.94759 30.9506 3.49988 31.5029 3.49988Z" fill="white" stroke="black"/>
<path d="M0.00292969 0.999878H34.0029V37.4999M34.0029 43.4999V37.4999M34.0029 37.4999C31.6696 37.9999 27.0029 37.9999 27.0029 33.9999C27.0029 29.9999 27.0029 15.3332 27.0029 8.49988L11.5029 8.48596M1.00293 8.49988H4.50293M4.50293 8.49988L11.5029 8.48596M4.50293 8.49988V14.7429M4.50293 44.9999V26.4859V15.4999V14.7429M11.5029 8.48596C11.0029 9.45889 11.2529 10.986 15.2529 10.986H18.0029C17.6696 11.8193 16.5029 12.986 14.0029 14.486C12.9183 15.1368 7.1696 14.9096 4.50293 14.7429" stroke="black"/>
</svg>
