<svg width="35" height="45" viewBox="0 0 35 45" fill="none" xmlns="http://www.w3.org/2000/svg">
<path d="M27.0029 9H34.0029" stroke="black"/>
<path d="M31.5029 4.5C32.0552 4.5 32.5029 4.94772 32.5029 5.5C32.5029 6.05228 32.0552 6.5 31.5029 6.5C30.9506 6.5 30.5029 6.05228 30.5029 5.5C30.5029 4.94772 30.9506 4.5 31.5029 4.5Z" fill="white" stroke="black"/>
<path d="M0.00292969 0.999878H34.0029V37.4999M34.0029 43.4999V37.4999M34.0029 37.4999C31.6696 37.9999 27.0029 37.9999 27.0029 33.9999C27.0029 29.9999 27.0029 15.3332 27.0029 8.49988L9.00293 8.06718M1.00293 7.99988L4.50293 8.06718M4.50293 8.06718V15.4999V26.4859M4.50293 8.06718H9.00293M4.50293 44.9999V26.4859M4.50293 26.4859C4.6696 27.3192 9.00293 24.9859 9.00293 23.9859C9.00293 20.2123 9.33626 12.3446 9.00293 8.06718" stroke="black"/>
</svg>
