<svg width="35" height="45" viewBox="0 0 35 45" fill="none" xmlns="http://www.w3.org/2000/svg">
<path d="M27.0029 8.49988H33.5029" stroke="black"/>
<path d="M31.5029 3.49988C32.0552 3.49988 32.5029 3.94759 32.5029 4.49988C32.5029 5.05216 32.0552 5.49988 31.5029 5.49988C30.9506 5.49988 30.5029 5.05216 30.5029 4.49988C30.5029 3.94759 30.9506 3.49988 31.5029 3.49988Z" fill="white" stroke="black"/>
<path d="M0.00292969 0.999756H34.0029V37.4998M34.0029 43.4998V37.4998M34.0029 37.4998C31.6696 37.9998 27.0029 37.9998 27.0029 33.9998M27.0029 33.9998C27.0029 29.9998 27.0029 15.3331 27.0029 8.49976M27.0029 33.9998V8.49976M27.0029 8.49976L11.5029 8.48584L4.50293 8.49976M1.00293 8.49976H4.50293M4.50293 8.49976V14.7428V15.4998V26.4858V44.9998" stroke="black"/>
<path d="M5.00293 27.4999L12.5029 20.4999M12.5029 20.4999L14.5029 13.4999M12.5029 20.4999L16.0029 13.9999M14.5029 13.4999L5.00293 8.99988M14.5029 13.4999L16.0029 13.9999M14.5029 13.4999C13.6696 13.1665 13.0029 12.6312 13.0029 11.4999C13.0029 10.4999 14.0029 9.99988 14.5029 9.99988H17.0029L17.5029 10.9999V11.4999L17.0029 12.9999L16.0029 13.9999M19.5029 8.99988V11.4999L16.0029 13.9999" stroke="black"/>
</svg>
