<svg width="35" height="45" viewBox="0 0 35 45" fill="none" xmlns="http://www.w3.org/2000/svg">
<path d="M27.0029 8.49988H34.0029" stroke="black"/>
<path d="M31.5029 4.49988C32.0552 4.49988 32.5029 4.94759 32.5029 5.49988C32.5029 6.05216 32.0552 6.49988 31.5029 6.49988C30.9506 6.49988 30.5029 6.05216 30.5029 5.49988C30.5029 4.94759 30.9506 4.49988 31.5029 4.49988Z" stroke="black"/>
<path d="M4.50293 27.4999L13.0029 20.8332M13.0029 20.8332L15.0029 13.8332M13.0029 20.8332L15.5029 13.9999M15.0029 13.8332L4.50293 8.99988M15.0029 13.8332L15.5029 13.9999M15.0029 13.8332C14.1696 13.4999 12.5029 12.6312 12.5029 11.4999C12.5029 10.4999 13.5029 9.99988 14.0029 9.99988H16.5029L17.0029 10.9999V11.4999L16.5029 12.9999L15.5029 13.9999M19.0029 8.99988V11.4999L15.5029 13.9999" stroke="black"/>
<path d="M0.00292969 0.999756H34.0029V37.4998M34.0029 43.4998V37.4998M34.0029 37.4998C31.6696 37.9998 27.0029 37.9998 27.0029 33.9998M27.0029 33.9998C27.0029 29.9998 27.0029 15.3331 27.0029 8.49976M27.0029 33.9998V8.49976M27.0029 8.49976L11.5029 8.48584L4.50293 8.49976M1.00293 8.49976H4.50293M4.50293 8.49976V14.7428V15.4998V26.4858V44.9998" stroke="black"/>
</svg>
