<svg width="35" height="45" viewBox="0 0 35 45" fill="none" xmlns="http://www.w3.org/2000/svg">
<path d="M4 20.5L25 15.5V9" stroke="black"/>
<path d="M29.5 3.5C30.0523 3.5 30.5 3.94772 30.5 4.5C30.5 5.05228 30.0523 5.5 29.5 5.5C28.9477 5.5 28.5 5.05228 28.5 4.5C28.5 3.94772 28.9477 3.5 29.5 3.5Z" fill="white" stroke="black"/>
<path d="M0.00292969 0.999878H34.0029V37.4999M34.0029 43.4999V37.4999M34.0029 37.4999C31.6696 37.9999 27.0029 37.9999 27.0029 33.9999M27.0029 33.9999C27.0029 29.9999 27.0029 15.3332 27.0029 8.49988M27.0029 33.9999V8.49988M27.0029 8.49988L11.5029 8.48596L4.50293 8.49988M1.00293 8.49988H4.50293M4.50293 8.49988V14.7429V15.4999V26.4859V44.9999" stroke="black"/>
<path d="M27 8.5H34" stroke="black"/>
</svg>
