<svg width="35" height="45" viewBox="0 0 35 45" fill="none" xmlns="http://www.w3.org/2000/svg">
<path d="M27.0029 8.5H34.0029" stroke="black"/>
<path d="M30.5029 3.49988C31.0552 3.49988 31.5029 3.94759 31.5029 4.49988C31.5029 5.05216 31.0552 5.49988 30.5029 5.49988C29.9506 5.49988 29.5029 5.05216 29.5029 4.49988C29.5029 3.94759 29.9506 3.49988 30.5029 3.49988Z" fill="white" stroke="black"/>
<path d="M0.00292969 0.999878H34.0029V37.4999M34.0029 43.4999V37.4999M34.0029 37.4999C31.6696 37.9999 27.0029 37.9999 27.0029 33.9999C27.0029 29.9999 27.0029 15.3332 27.0029 8.49988L4.50293 8.06718M1.00293 7.99988L4.50293 8.06718M4.50293 8.06718V15.4999M4.50293 44.9999V15.4999M4.50293 15.4999C7.35036 16.3374 10.512 16.4646 13.5029 16.0492C18.3313 15.3787 22.7148 13.2939 24.613 10.4999M24.613 10.4999C25.049 9.85816 25.3539 9.17903 25.5029 8.47103L24.613 10.4999Z" stroke="black"/>
</svg>
