<svg width="64" height="74" viewBox="0 0 64 74" fill="none" xmlns="http://www.w3.org/2000/svg">
<path d="M17 6L9.5 8M9.5 8L10.5 11.5L11.5 16.5L12.5 24.5V30.5V38.5V41L9 48V64H1V43V35V30.5V27.5L4 17.5C5 14.5 5 13 9.5 8Z" stroke="black"/>
<path d="M47 6L55 8M55 8L54 11.5L53 16.5L52 24.5V30.5V38.5V41L55.5 48L55 56V64H63.5V43V35V30.5V27.5L60.5 17.5C59.5 14.5 59.5 13 55 8Z" stroke="black"/>
<path d="M8.5 73H24L31.5 65L39.5 73H55.5" stroke="black"/>
<path d="M32 29V65" stroke="black"/>
<path d="M18 13H17" stroke="black"/>
<path d="M23 10L32 28.5" stroke="black"/>
<path d="M17 13C23.0671 17.0431 32 29 32 29" stroke="black"/>
<path d="M40.5 20H47L45.5 22H38.5" stroke="black"/>
<path d="M9 59V73M55 73V59" stroke="black"/>
<path d="M42 10L32 28.5" stroke="black"/>
<path d="M47 13C41.9062 16.8258 32 29 32 29" stroke="black"/>
<path d="M41 1H24V4M41 1V4M41 1L47 4V12.5L41 10V7M41 4H24M41 4V7M24 4V7H41" stroke="black"/>
<path d="M23 1V4V7V10L17 12.5V4L23.5 1H24" stroke="black"/>
<path d="M9 50H16V52H9" stroke="black"/>
<path d="M55 48H48V50H55" stroke="black"/>
<path d="M36.5 53.1338C36.5 53.6861 36.0523 54.1338 35.5 54.1338C34.9477 54.1338 34.5 53.6861 34.5 53.1338C34.5 52.5815 34.9477 52.1338 35.5 52.1338C36.0523 52.1338 36.5 52.5815 36.5 53.1338Z" stroke="black"/>
<path d="M36.5 61C36.5 61.5523 36.0523 62 35.5 62C34.9477 62 34.5 61.5523 34.5 61C34.5 60.4477 34.9477 60 35.5 60C36.0523 60 36.5 60.4477 36.5 61Z" stroke="black"/>
</svg>
