<svg width="64" height="74" viewBox="0 0 64 74" fill="none" xmlns="http://www.w3.org/2000/svg">
<path d="M17 6L9.5 8M9.5 8L10.5 11.5L11.5 16.5L12.5 24.5V30.5V38.5V41L9 48V64H1V43V35V30.5V27.5L4 17.5C5 14.5 5 13 9.5 8Z" stroke="black"/>
<path d="M48.5 6.5L55 8M55 8L54 11.5L53 16.5L52 24.5V30.5V38.5V41L55.5 48L55 56V64H63.5V43V35V30.5V27.5L60.5 17.5C59.5 14.5 59.5 13 55 8Z" stroke="black"/>
<path d="M18 13H17" stroke="black"/>
<path d="M8.5 73H24L31.5 65L39.5 73H55.5" stroke="black"/>
<path d="M32 29V65" stroke="black"/>
<path d="M23 10L32 28.5" stroke="black"/>
<path d="M17 13C23.0671 17.0431 32 29 32 29" stroke="black"/>
<path d="M40 20H47L45.5 22H38.5" stroke="black"/>
<path d="M9 59V73M55 73V59" stroke="black"/>
<path d="M42 10L32 28.5" stroke="black"/>
<path d="M47 13C41.9062 16.8258 32 29 32 29" stroke="black"/>
<path d="M24 4V1H41V4M24 4H41M24 4V7H41V4" stroke="black"/>
<path d="M23 1V4V7V10L15 14L17 4L23.5 1H24" stroke="black"/>
<path d="M42 1V4V7V10L50 14L48 4L41.5 1H41" stroke="black"/>
<path d="M9 50H16V52H9" stroke="black"/>
<path d="M55 48H48V50H55" stroke="black"/>
</svg>
