<svg width="64" height="73" viewBox="0 0 64 73" fill="none" xmlns="http://www.w3.org/2000/svg">
<circle cx="28" cy="52" r="1" fill="white" stroke="black"/>
<circle cx="35" cy="52" r="1" fill="white" stroke="black"/>
<path d="M17 6L9.5 8M9.5 8L10.5 11.5L11.5 16.5L12.5 24.5V30.5V38.5V41L9 48V64H1V43V35V30.5V27.5L4 17.5C5 14.5 5 13 9.5 8Z" stroke="black"/>
<path d="M47 6L55 8M55 8L54 11.5L53 16.5L52 24.5V30.5V38.5V41L55.5 48L55 56V64H63.5V43V35V30.5V27.5L60.5 17.5C59.5 14.5 59.5 13 55 8Z" stroke="black"/>
<path d="M18 13H17" stroke="black"/>
<path d="M23 10L32 28.5" stroke="black"/>
<path d="M17 13C22.6626 17.2958 31 30 31 30" stroke="black"/>
<path d="M41.5 20H48L46.5 22H40" stroke="black"/>
<path d="M25 72.5V41" stroke="black"/>
<path d="M9 59V72H55V59" stroke="black"/>
<path d="M42 10L25 41.5" stroke="black"/>
<path d="M48 13C40.1895 19.6389 25 42.5 25 42.5" stroke="black"/>
<path d="M41 1H24V4M41 1V4M41 1L47 4V12.5L41 10V7M41 4H24M41 4V7M24 4V7H41" stroke="black"/>
<path d="M23 1V4V7V10L17 12.5V4L23.5 1H24" stroke="black"/>
<path d="M9 50H16V52H9" stroke="black"/>
<path d="M55 48H48V50H55" stroke="black"/>
<circle cx="28" cy="58" r="1" fill="white" stroke="black"/>
<circle cx="35" cy="58" r="1" fill="white" stroke="black"/>
</svg>
